<mxfile host="app.diagrams.net" agent="Mozilla/5.0 (Windows NT 10.0; Win64; x64) AppleWebKit/537.36 (KHTML, like Gecko) Chrome/131.0.0.0 Safari/537.36" version="26.0.8">
  <diagram name="Pagina-1" id="3uPeI-ovwg1Tm94I9lKM">
    <mxGraphModel dx="1434" dy="780" grid="1" gridSize="10" guides="1" tooltips="1" connect="1" arrows="1" fold="1" page="1" pageScale="1" pageWidth="827" pageHeight="1169" math="0" shadow="0">
      <root>
        <mxCell id="0" />
        <mxCell id="1" parent="0" />
        <mxCell id="IgpkKl995zLm2mQx6K5T-4" style="edgeStyle=orthogonalEdgeStyle;rounded=0;orthogonalLoop=1;jettySize=auto;html=1;entryX=0.5;entryY=0;entryDx=0;entryDy=0;" edge="1" parent="1" source="IgpkKl995zLm2mQx6K5T-1" target="IgpkKl995zLm2mQx6K5T-2">
          <mxGeometry relative="1" as="geometry" />
        </mxCell>
        <mxCell id="IgpkKl995zLm2mQx6K5T-1" value="START" style="ellipse;whiteSpace=wrap;html=1;" vertex="1" parent="1">
          <mxGeometry x="354" y="40" width="120" height="80" as="geometry" />
        </mxCell>
        <mxCell id="IgpkKl995zLm2mQx6K5T-7" style="edgeStyle=orthogonalEdgeStyle;rounded=0;orthogonalLoop=1;jettySize=auto;html=1;entryX=0.5;entryY=0;entryDx=0;entryDy=0;" edge="1" parent="1" source="IgpkKl995zLm2mQx6K5T-2" target="IgpkKl995zLm2mQx6K5T-6">
          <mxGeometry relative="1" as="geometry" />
        </mxCell>
        <mxCell id="IgpkKl995zLm2mQx6K5T-2" value="n_tutor = 10" style="rounded=0;whiteSpace=wrap;html=1;" vertex="1" parent="1">
          <mxGeometry x="354" y="160" width="120" height="60" as="geometry" />
        </mxCell>
        <mxCell id="IgpkKl995zLm2mQx6K5T-9" style="edgeStyle=orthogonalEdgeStyle;rounded=0;orthogonalLoop=1;jettySize=auto;html=1;entryX=0.5;entryY=0;entryDx=0;entryDy=0;" edge="1" parent="1" source="IgpkKl995zLm2mQx6K5T-6" target="IgpkKl995zLm2mQx6K5T-8">
          <mxGeometry relative="1" as="geometry" />
        </mxCell>
        <mxCell id="IgpkKl995zLm2mQx6K5T-6" value="lista_attesa = 0" style="rounded=0;whiteSpace=wrap;html=1;" vertex="1" parent="1">
          <mxGeometry x="354" y="260" width="120" height="60" as="geometry" />
        </mxCell>
        <mxCell id="IgpkKl995zLm2mQx6K5T-20" style="edgeStyle=orthogonalEdgeStyle;rounded=0;orthogonalLoop=1;jettySize=auto;html=1;entryX=0.5;entryY=0;entryDx=0;entryDy=0;" edge="1" parent="1" source="IgpkKl995zLm2mQx6K5T-8" target="IgpkKl995zLm2mQx6K5T-10">
          <mxGeometry relative="1" as="geometry" />
        </mxCell>
        <mxCell id="IgpkKl995zLm2mQx6K5T-8" value="Read studente" style="shape=parallelogram;perimeter=parallelogramPerimeter;whiteSpace=wrap;html=1;fixedSize=1;" vertex="1" parent="1">
          <mxGeometry x="354" y="360" width="120" height="60" as="geometry" />
        </mxCell>
        <mxCell id="IgpkKl995zLm2mQx6K5T-12" style="edgeStyle=orthogonalEdgeStyle;rounded=0;orthogonalLoop=1;jettySize=auto;html=1;" edge="1" parent="1" source="IgpkKl995zLm2mQx6K5T-10">
          <mxGeometry relative="1" as="geometry">
            <mxPoint x="560" y="500" as="targetPoint" />
          </mxGeometry>
        </mxCell>
        <mxCell id="IgpkKl995zLm2mQx6K5T-13" value="TRUE" style="edgeLabel;html=1;align=center;verticalAlign=middle;resizable=0;points=[];" vertex="1" connectable="0" parent="IgpkKl995zLm2mQx6K5T-12">
          <mxGeometry x="-0.2833" y="-1" relative="1" as="geometry">
            <mxPoint as="offset" />
          </mxGeometry>
        </mxCell>
        <mxCell id="IgpkKl995zLm2mQx6K5T-23" style="edgeStyle=orthogonalEdgeStyle;rounded=0;orthogonalLoop=1;jettySize=auto;html=1;entryX=0.5;entryY=0;entryDx=0;entryDy=0;" edge="1" parent="1" source="IgpkKl995zLm2mQx6K5T-10" target="IgpkKl995zLm2mQx6K5T-22">
          <mxGeometry relative="1" as="geometry" />
        </mxCell>
        <mxCell id="IgpkKl995zLm2mQx6K5T-24" value="FALSE" style="edgeLabel;html=1;align=center;verticalAlign=middle;resizable=0;points=[];" vertex="1" connectable="0" parent="IgpkKl995zLm2mQx6K5T-23">
          <mxGeometry x="-0.2" y="-2" relative="1" as="geometry">
            <mxPoint as="offset" />
          </mxGeometry>
        </mxCell>
        <mxCell id="IgpkKl995zLm2mQx6K5T-10" value="n_tutor &amp;gt; 0" style="rhombus;whiteSpace=wrap;html=1;" vertex="1" parent="1">
          <mxGeometry x="354" y="460" width="120" height="80" as="geometry" />
        </mxCell>
        <mxCell id="IgpkKl995zLm2mQx6K5T-16" style="edgeStyle=orthogonalEdgeStyle;rounded=0;orthogonalLoop=1;jettySize=auto;html=1;entryX=0.5;entryY=1;entryDx=0;entryDy=0;" edge="1" parent="1" source="IgpkKl995zLm2mQx6K5T-14" target="IgpkKl995zLm2mQx6K5T-15">
          <mxGeometry relative="1" as="geometry" />
        </mxCell>
        <mxCell id="IgpkKl995zLm2mQx6K5T-14" value="n_tutor--" style="rounded=0;whiteSpace=wrap;html=1;" vertex="1" parent="1">
          <mxGeometry x="560" y="470" width="120" height="60" as="geometry" />
        </mxCell>
        <mxCell id="IgpkKl995zLm2mQx6K5T-17" style="edgeStyle=orthogonalEdgeStyle;rounded=0;orthogonalLoop=1;jettySize=auto;html=1;entryX=1;entryY=0.5;entryDx=0;entryDy=0;" edge="1" parent="1" source="IgpkKl995zLm2mQx6K5T-15" target="IgpkKl995zLm2mQx6K5T-8">
          <mxGeometry relative="1" as="geometry" />
        </mxCell>
        <mxCell id="IgpkKl995zLm2mQx6K5T-15" value="Write &quot;tutor&amp;nbsp;&lt;div&gt;assegnato&quot;&lt;/div&gt;" style="shape=parallelogram;perimeter=parallelogramPerimeter;whiteSpace=wrap;html=1;fixedSize=1;" vertex="1" parent="1">
          <mxGeometry x="560" y="360" width="120" height="60" as="geometry" />
        </mxCell>
        <mxCell id="IgpkKl995zLm2mQx6K5T-26" style="edgeStyle=orthogonalEdgeStyle;rounded=0;orthogonalLoop=1;jettySize=auto;html=1;entryX=1;entryY=0.5;entryDx=0;entryDy=0;" edge="1" parent="1" source="IgpkKl995zLm2mQx6K5T-22" target="IgpkKl995zLm2mQx6K5T-25">
          <mxGeometry relative="1" as="geometry" />
        </mxCell>
        <mxCell id="IgpkKl995zLm2mQx6K5T-27" value="TRUE" style="edgeLabel;html=1;align=center;verticalAlign=middle;resizable=0;points=[];" vertex="1" connectable="0" parent="IgpkKl995zLm2mQx6K5T-26">
          <mxGeometry x="0.0238" relative="1" as="geometry">
            <mxPoint as="offset" />
          </mxGeometry>
        </mxCell>
        <mxCell id="IgpkKl995zLm2mQx6K5T-29" style="edgeStyle=orthogonalEdgeStyle;rounded=0;orthogonalLoop=1;jettySize=auto;html=1;entryX=0.5;entryY=0;entryDx=0;entryDy=0;" edge="1" parent="1" source="IgpkKl995zLm2mQx6K5T-22" target="IgpkKl995zLm2mQx6K5T-31">
          <mxGeometry relative="1" as="geometry">
            <mxPoint x="414" y="715" as="targetPoint" />
          </mxGeometry>
        </mxCell>
        <mxCell id="IgpkKl995zLm2mQx6K5T-30" value="FALSE" style="edgeLabel;html=1;align=center;verticalAlign=middle;resizable=0;points=[];" vertex="1" connectable="0" parent="IgpkKl995zLm2mQx6K5T-29">
          <mxGeometry x="-0.406" relative="1" as="geometry">
            <mxPoint y="5" as="offset" />
          </mxGeometry>
        </mxCell>
        <mxCell id="IgpkKl995zLm2mQx6K5T-22" value="lista_attesa &amp;lt; 50" style="rhombus;whiteSpace=wrap;html=1;" vertex="1" parent="1">
          <mxGeometry x="354" y="585" width="120" height="80" as="geometry" />
        </mxCell>
        <mxCell id="IgpkKl995zLm2mQx6K5T-34" style="edgeStyle=orthogonalEdgeStyle;rounded=0;orthogonalLoop=1;jettySize=auto;html=1;entryX=0.5;entryY=1;entryDx=0;entryDy=0;" edge="1" parent="1" source="IgpkKl995zLm2mQx6K5T-25" target="IgpkKl995zLm2mQx6K5T-33">
          <mxGeometry relative="1" as="geometry" />
        </mxCell>
        <mxCell id="IgpkKl995zLm2mQx6K5T-25" value="lista_attesa++" style="rounded=0;whiteSpace=wrap;html=1;" vertex="1" parent="1">
          <mxGeometry x="150" y="595" width="120" height="60" as="geometry" />
        </mxCell>
        <mxCell id="IgpkKl995zLm2mQx6K5T-31" value="END" style="ellipse;whiteSpace=wrap;html=1;" vertex="1" parent="1">
          <mxGeometry x="354" y="715" width="120" height="80" as="geometry" />
        </mxCell>
        <mxCell id="IgpkKl995zLm2mQx6K5T-35" style="edgeStyle=orthogonalEdgeStyle;rounded=0;orthogonalLoop=1;jettySize=auto;html=1;entryX=0;entryY=0.5;entryDx=0;entryDy=0;" edge="1" parent="1" source="IgpkKl995zLm2mQx6K5T-33" target="IgpkKl995zLm2mQx6K5T-8">
          <mxGeometry relative="1" as="geometry" />
        </mxCell>
        <mxCell id="IgpkKl995zLm2mQx6K5T-33" value="Write &quot;studente inserito in lista d&#39;attesa&lt;span style=&quot;background-color: transparent; color: light-dark(rgb(0, 0, 0), rgb(255, 255, 255));&quot;&gt;&quot;&lt;/span&gt;" style="shape=parallelogram;perimeter=parallelogramPerimeter;whiteSpace=wrap;html=1;fixedSize=1;" vertex="1" parent="1">
          <mxGeometry x="150" y="360" width="120" height="60" as="geometry" />
        </mxCell>
      </root>
    </mxGraphModel>
  </diagram>
</mxfile>
